<?xml version="1.0" encoding="utf-8"?>
<!-- Generator: Adobe Illustrator 15.0.0, SVG Export Plug-In . SVG Version: 6.00 Build 0)  -->
<!DOCTYPE svg PUBLIC "-//W3C//DTD SVG 1.1//EN" "http://www.w3.org/Graphics/SVG/1.1/DTD/svg11.dtd">
<svg version="1.1" xmlns="http://www.w3.org/2000/svg" xmlns:xlink="http://www.w3.org/1999/xlink" x="0px" y="0px" width="720px"
	 height="424.097px" viewBox="0 0 720 424.097" enable-background="new 0 0 720 424.097" xml:space="preserve">
<g id="Layer_1" display="none">
	<circle display="inline" fill="#FFFFFF" stroke="#000000" stroke-miterlimit="10" cx="160.651" cy="296.182" r="89.157"/>
	<circle display="inline" fill="#FFFFFF" stroke="#000000" stroke-miterlimit="10" cx="166.651" cy="301.182" r="89.157"/>
	<circle display="inline" fill="#FFFFFF" stroke="#000000" stroke-miterlimit="10" cx="172.651" cy="306.182" r="89.157"/>
	<circle display="inline" fill="#FFFFFF" stroke="#000000" stroke-miterlimit="10" cx="178.651" cy="311.182" r="89.157"/>
	<circle display="inline" fill="#FFFFFF" stroke="#000000" stroke-miterlimit="10" cx="185.651" cy="316.182" r="89.157"/>
	<circle display="inline" fill="#FFFFFF" stroke="#000000" stroke-miterlimit="10" cx="193.651" cy="314.182" r="89.157"/>
	<circle display="inline" fill="#FFFFFF" stroke="#000000" stroke-miterlimit="10" cx="200.651" cy="311.182" r="89.157"/>
	<circle display="inline" fill="#FFFFFF" stroke="#000000" stroke-miterlimit="10" cx="206.651" cy="306.182" r="89.157"/>
	<circle display="inline" fill="#FFFFFF" stroke="#000000" stroke-miterlimit="10" cx="212.651" cy="302.182" r="89.157"/>
	<circle display="inline" fill="#FFFFFF" stroke="#000000" stroke-miterlimit="10" cx="218.651" cy="297.182" r="89.157"/>
	<circle display="inline" fill="#FFFFFF" stroke="#000000" stroke-miterlimit="10" cx="218.651" cy="296.182" r="89.157"/>
	<circle display="inline" fill="#FFFFFF" stroke="#000000" stroke-miterlimit="10" cx="218.651" cy="290.182" r="89.157"/>
	<circle display="inline" fill="#FFFFFF" stroke="#000000" stroke-miterlimit="10" cx="212.651" cy="286.182" r="89.157"/>
	<circle display="inline" fill="#FFFFFF" stroke="#000000" stroke-miterlimit="10" cx="205.651" cy="282.182" r="89.157"/>
	<circle display="inline" fill="#FFFFFF" stroke="#000000" stroke-miterlimit="10" cx="212.651" cy="276.182" r="89.157"/>
	<circle display="inline" fill="#FFFFFF" stroke="#000000" stroke-miterlimit="10" cx="219.651" cy="272.182" r="89.157"/>
	<circle display="inline" fill="#FFFFFF" stroke="#000000" stroke-miterlimit="10" cx="224.651" cy="268.182" r="89.157"/>
	<circle display="inline" fill="#FFFFFF" stroke="#000000" stroke-miterlimit="10" cx="227.651" cy="264.182" r="89.157"/>
	<circle display="inline" fill="#FFFFFF" stroke="#000000" stroke-miterlimit="10" cx="232.651" cy="260.182" r="89.157"/>
	<circle display="inline" fill="#FFFFFF" stroke="#000000" stroke-miterlimit="10" cx="229.651" cy="255.182" r="89.157"/>
	<circle display="inline" fill="#FFFFFF" stroke="#000000" stroke-miterlimit="10" cx="223.651" cy="251.182" r="89.157"/>
	<circle display="inline" fill="#FFFFFF" stroke="#000000" stroke-miterlimit="10" cx="217.651" cy="246.182" r="89.157"/>
	<circle display="inline" fill="#FFFFFF" stroke="#000000" stroke-miterlimit="10" cx="210.651" cy="241.182" r="89.157"/>
	<circle display="inline" fill="#FFFFFF" stroke="#000000" stroke-miterlimit="10" cx="204.651" cy="236.182" r="89.157"/>
	<circle display="inline" fill="#FFFFFF" stroke="#000000" stroke-miterlimit="10" cx="197.651" cy="230.182" r="89.157"/>
	<circle display="inline" fill="#FFFFFF" stroke="#000000" stroke-miterlimit="10" cx="190.651" cy="224.181" r="89.157"/>
	<circle display="inline" fill="#FFFFFF" stroke="#000000" stroke-miterlimit="10" cx="195.651" cy="220.181" r="89.157"/>
	<circle display="inline" fill="#FFFFFF" stroke="#000000" stroke-miterlimit="10" cx="200.651" cy="216.181" r="89.157"/>
	<circle display="inline" fill="#FFFFFF" stroke="#000000" stroke-miterlimit="10" cx="196.651" cy="211.181" r="89.157"/>
	<circle display="inline" fill="#FFFFFF" stroke="#000000" stroke-miterlimit="10" cx="196.651" cy="210.181" r="89.157"/>
	<circle display="inline" fill="#FFFFFF" stroke="#000000" stroke-miterlimit="10" cx="190.651" cy="205.181" r="89.157"/>
	<circle display="inline" fill="#FFFFFF" stroke="#000000" stroke-miterlimit="10" cx="186.651" cy="200.181" r="89.157"/>
	<circle display="inline" fill="#FFFFFF" stroke="#000000" stroke-miterlimit="10" cx="191.651" cy="196.181" r="89.157"/>
	<circle display="inline" fill="#FFFFFF" stroke="#000000" stroke-miterlimit="10" cx="197.651" cy="191.181" r="89.157"/>
	<circle display="inline" fill="#FFFFFF" stroke="#000000" stroke-miterlimit="10" cx="202.651" cy="187.181" r="89.157"/>
	<circle display="inline" fill="#FFFFFF" stroke="#000000" stroke-miterlimit="10" cx="206.651" cy="182.181" r="89.157"/>
	<circle display="inline" fill="#FFFFFF" stroke="#000000" stroke-miterlimit="10" cx="211.651" cy="178.181" r="89.157"/>
	<circle display="inline" fill="#FFFFFF" stroke="#000000" stroke-miterlimit="10" cx="217.651" cy="173.181" r="89.157"/>
	<circle display="inline" fill="#FFFFFF" stroke="#000000" stroke-miterlimit="10" cx="221.651" cy="168.181" r="89.157"/>
	<circle display="inline" fill="#FFFFFF" stroke="#000000" stroke-miterlimit="10" cx="225.651" cy="163.181" r="89.157"/>
	<circle display="inline" fill="#FFFFFF" stroke="#000000" stroke-miterlimit="10" cx="220.651" cy="160.181" r="89.157"/>
	<circle display="inline" fill="#FFFFFF" stroke="#000000" stroke-miterlimit="10" cx="215.651" cy="156.181" r="89.157"/>
	<circle display="inline" fill="#FFFFFF" stroke="#000000" stroke-miterlimit="10" cx="210.651" cy="151.181" r="89.157"/>
	<circle display="inline" fill="#FFFFFF" stroke="#000000" stroke-miterlimit="10" cx="204.651" cy="147.181" r="89.157"/>
	<circle display="inline" fill="#FFFFFF" stroke="#000000" stroke-miterlimit="10" cx="198.651" cy="143.181" r="89.157"/>
	<circle display="inline" fill="#FFFFFF" stroke="#000000" stroke-miterlimit="10" cx="191.651" cy="142.181" r="89.157"/>
	<circle display="inline" fill="#FFFFFF" stroke="#000000" stroke-miterlimit="10" cx="185.651" cy="147.181" r="89.157"/>
	<circle display="inline" fill="#FFFFFF" stroke="#000000" stroke-miterlimit="10" cx="180.651" cy="150.181" r="89.157"/>
	<circle display="inline" fill="#FFFFFF" stroke="#000000" stroke-miterlimit="10" cx="174.651" cy="154.181" r="89.157"/>
	<circle display="inline" fill="#FFFFFF" stroke="#000000" stroke-miterlimit="10" cx="168.651" cy="158.181" r="89.157"/>
	<circle display="inline" fill="#FFFFFF" stroke="#000000" stroke-miterlimit="10" cx="159.651" cy="160.181" r="89.157"/>
	<circle display="inline" fill="#FFFFFF" stroke="#000000" stroke-miterlimit="10" cx="152.651" cy="158.181" r="89.157"/>
	<circle display="inline" fill="#FFFFFF" stroke="#000000" stroke-miterlimit="10" cx="146.651" cy="163.181" r="89.157"/>
	<circle display="inline" fill="#FFFFFF" stroke="#000000" stroke-miterlimit="10" cx="146.651" cy="164.181" r="89.157"/>
	<circle display="inline" fill="#FFFFFF" stroke="#000000" stroke-miterlimit="10" cx="140.651" cy="169.181" r="89.157"/>
	<circle display="inline" fill="#FFFFFF" stroke="#000000" stroke-miterlimit="10" cx="134.651" cy="173.181" r="89.157"/>
	<circle display="inline" fill="#FFFFFF" stroke="#000000" stroke-miterlimit="10" cx="140.651" cy="168.181" r="89.157"/>
	<circle display="inline" fill="#FFFFFF" stroke="#000000" stroke-miterlimit="10" cx="127.651" cy="180.181" r="89.157"/>
	<circle display="inline" fill="#FFFFFF" stroke="#000000" stroke-miterlimit="10" cx="120.651" cy="186.181" r="89.157"/>
	<circle display="inline" fill="#FFFFFF" stroke="#000000" stroke-miterlimit="10" cx="114.651" cy="192.181" r="89.157"/>
	<circle display="inline" fill="#FFFFFF" stroke="#000000" stroke-miterlimit="10" cx="119.651" cy="199.181" r="89.157"/>
	<circle display="inline" fill="#FFFFFF" stroke="#000000" stroke-miterlimit="10" cx="126.651" cy="206.181" r="89.157"/>
	<circle display="inline" fill="#FFFFFF" stroke="#000000" stroke-miterlimit="10" cx="120.651" cy="212.181" r="89.157"/>
	<circle display="inline" fill="#FFFFFF" stroke="#000000" stroke-miterlimit="10" cx="127.651" cy="218.181" r="89.157"/>
	<circle display="inline" fill="#FFFFFF" stroke="#000000" stroke-miterlimit="10" cx="132.651" cy="225.181" r="89.157"/>
	<circle display="inline" fill="#FFFFFF" stroke="#000000" stroke-miterlimit="10" cx="138.651" cy="234.182" r="89.157"/>
	<circle display="inline" fill="#FFFFFF" stroke="#000000" stroke-miterlimit="10" cx="132.651" cy="241.182" r="89.157"/>
	<circle display="inline" fill="#FFFFFF" stroke="#000000" stroke-miterlimit="10" cx="139.651" cy="247.182" r="89.157"/>
	<circle display="inline" fill="#FFFFFF" stroke="#000000" stroke-miterlimit="10" cx="134.651" cy="253.182" r="89.157"/>
	<circle display="inline" fill="#FFFFFF" stroke="#000000" stroke-miterlimit="10" cx="140.651" cy="260.182" r="89.157"/>
	<circle display="inline" fill="#FFFFFF" stroke="#000000" stroke-miterlimit="10" cx="145.651" cy="266.182" r="89.157"/>
	<circle display="inline" fill="#FFFFFF" stroke="#000000" stroke-miterlimit="10" cx="151.651" cy="273.182" r="89.157"/>
	<circle display="inline" fill="#FFFFFF" stroke="#000000" stroke-miterlimit="10" cx="157.651" cy="280.182" r="89.157"/>
	<circle display="inline" fill="#FFFFFF" stroke="#000000" stroke-miterlimit="10" cx="157.651" cy="281.182" r="89.157"/>
	<circle display="inline" fill="#FFFFFF" stroke="#000000" stroke-miterlimit="10" cx="153.651" cy="287.182" r="89.157"/>
	<circle display="inline" fill="#FFFFFF" stroke="#000000" stroke-miterlimit="10" cx="154.651" cy="289.182" r="89.157"/>
	<circle display="inline" fill="#FFFFFF" stroke="#000000" stroke-miterlimit="10" cx="157.651" cy="293.182" r="89.157"/>
</g>
<g id="Layer_2">
	<circle fill="none" stroke="#000000" stroke-miterlimit="10" cx="341.808" cy="283.024" r="89.157"/>
	<circle fill="none" stroke="#000000" stroke-miterlimit="10" cx="347.808" cy="288.024" r="89.157"/>
	<circle fill="none" stroke="#000000" stroke-miterlimit="10" cx="353.808" cy="293.024" r="89.157"/>
	<circle fill="none" stroke="#000000" stroke-miterlimit="10" cx="359.808" cy="298.024" r="89.157"/>
	<circle fill="none" stroke="#000000" stroke-miterlimit="10" cx="366.808" cy="303.024" r="89.157"/>
	<circle fill="none" stroke="#000000" stroke-miterlimit="10" cx="374.808" cy="301.024" r="89.157"/>
	<circle fill="none" stroke="#000000" stroke-miterlimit="10" cx="381.808" cy="298.024" r="89.157"/>
	<circle fill="none" stroke="#000000" stroke-miterlimit="10" cx="387.808" cy="293.024" r="89.157"/>
	<circle fill="none" stroke="#000000" stroke-miterlimit="10" cx="393.808" cy="289.024" r="89.157"/>
	<circle fill="none" stroke="#000000" stroke-miterlimit="10" cx="399.808" cy="284.024" r="89.157"/>
	<circle fill="none" stroke="#000000" stroke-miterlimit="10" cx="399.808" cy="283.024" r="89.157"/>
	<circle fill="none" stroke="#000000" stroke-miterlimit="10" cx="399.808" cy="277.024" r="89.157"/>
	<circle fill="none" stroke="#000000" stroke-miterlimit="10" cx="393.808" cy="273.024" r="89.157"/>
	<circle fill="none" stroke="#000000" stroke-miterlimit="10" cx="386.808" cy="269.024" r="89.157"/>
	<circle fill="none" stroke="#000000" stroke-miterlimit="10" cx="393.808" cy="263.024" r="89.157"/>
	<circle fill="none" stroke="#000000" stroke-miterlimit="10" cx="400.808" cy="259.024" r="89.157"/>
	<circle fill="none" stroke="#000000" stroke-miterlimit="10" cx="405.808" cy="255.024" r="89.157"/>
	<circle fill="none" stroke="#000000" stroke-miterlimit="10" cx="408.808" cy="251.024" r="89.157"/>
	<circle fill="none" stroke="#000000" stroke-miterlimit="10" cx="413.808" cy="247.024" r="89.157"/>
	<circle fill="none" stroke="#000000" stroke-miterlimit="10" cx="410.808" cy="242.024" r="89.157"/>
	<circle fill="none" stroke="#000000" stroke-miterlimit="10" cx="404.808" cy="238.024" r="89.157"/>
	<circle fill="none" stroke="#000000" stroke-miterlimit="10" cx="398.808" cy="233.024" r="89.157"/>
	<circle fill="none" stroke="#000000" stroke-miterlimit="10" cx="391.808" cy="228.024" r="89.157"/>
	<circle fill="none" stroke="#000000" stroke-miterlimit="10" cx="385.808" cy="223.024" r="89.157"/>
	<circle fill="none" stroke="#000000" stroke-miterlimit="10" cx="378.808" cy="217.024" r="89.157"/>
	<circle fill="none" stroke="#000000" stroke-miterlimit="10" cx="371.808" cy="211.024" r="89.157"/>
	<circle fill="none" stroke="#000000" stroke-miterlimit="10" cx="376.808" cy="207.024" r="89.157"/>
	<circle fill="none" stroke="#000000" stroke-miterlimit="10" cx="381.808" cy="203.024" r="89.157"/>
	<circle fill="none" stroke="#000000" stroke-miterlimit="10" cx="377.808" cy="198.024" r="89.157"/>
	<circle fill="none" stroke="#000000" stroke-miterlimit="10" cx="377.808" cy="197.024" r="89.157"/>
	<circle fill="none" stroke="#000000" stroke-miterlimit="10" cx="371.808" cy="192.024" r="89.157"/>
	<circle fill="none" stroke="#000000" stroke-miterlimit="10" cx="367.808" cy="187.024" r="89.157"/>
	<circle fill="none" stroke="#000000" stroke-miterlimit="10" cx="372.808" cy="183.024" r="89.157"/>
	<circle fill="none" stroke="#000000" stroke-miterlimit="10" cx="378.808" cy="178.024" r="89.157"/>
	<circle fill="none" stroke="#000000" stroke-miterlimit="10" cx="383.808" cy="174.024" r="89.157"/>
	<circle fill="none" stroke="#000000" stroke-miterlimit="10" cx="387.808" cy="169.024" r="89.157"/>
	<circle fill="none" stroke="#000000" stroke-miterlimit="10" cx="392.808" cy="165.024" r="89.157"/>
	<circle fill="none" stroke="#000000" stroke-miterlimit="10" cx="398.808" cy="160.024" r="89.157"/>
	<circle fill="none" stroke="#000000" stroke-miterlimit="10" cx="402.808" cy="155.024" r="89.157"/>
	<circle fill="none" stroke="#000000" stroke-miterlimit="10" cx="406.808" cy="150.024" r="89.157"/>
	<circle fill="none" stroke="#000000" stroke-miterlimit="10" cx="401.808" cy="147.024" r="89.157"/>
	<circle fill="none" stroke="#000000" stroke-miterlimit="10" cx="396.808" cy="143.024" r="89.157"/>
	<circle fill="none" stroke="#000000" stroke-miterlimit="10" cx="391.808" cy="138.024" r="89.157"/>
	<circle fill="none" stroke="#000000" stroke-miterlimit="10" cx="385.808" cy="134.024" r="89.157"/>
	<circle fill="none" stroke="#000000" stroke-miterlimit="10" cx="379.808" cy="130.024" r="89.157"/>
	<circle fill="none" stroke="#000000" stroke-miterlimit="10" cx="372.808" cy="129.024" r="89.157"/>
	<circle fill="none" stroke="#000000" stroke-miterlimit="10" cx="366.808" cy="134.024" r="89.157"/>
	<circle fill="none" stroke="#000000" stroke-miterlimit="10" cx="361.808" cy="137.024" r="89.157"/>
	<circle fill="none" stroke="#000000" stroke-miterlimit="10" cx="355.808" cy="141.024" r="89.157"/>
	<circle fill="none" stroke="#000000" stroke-miterlimit="10" cx="349.808" cy="145.024" r="89.157"/>
	<circle fill="none" stroke="#000000" stroke-miterlimit="10" cx="340.808" cy="147.024" r="89.157"/>
	<circle fill="none" stroke="#000000" stroke-miterlimit="10" cx="333.808" cy="145.024" r="89.157"/>
	<circle fill="none" stroke="#000000" stroke-miterlimit="10" cx="327.808" cy="150.024" r="89.157"/>
	<circle fill="none" stroke="#000000" stroke-miterlimit="10" cx="327.808" cy="151.024" r="89.157"/>
	<circle fill="none" stroke="#000000" stroke-miterlimit="10" cx="321.808" cy="156.024" r="89.157"/>
	<circle fill="none" stroke="#000000" stroke-miterlimit="10" cx="315.808" cy="160.024" r="89.157"/>
	<circle fill="none" stroke="#000000" stroke-miterlimit="10" cx="321.808" cy="155.024" r="89.157"/>
	<circle fill="none" stroke="#000000" stroke-miterlimit="10" cx="308.808" cy="167.024" r="89.157"/>
	<circle fill="none" stroke="#000000" stroke-miterlimit="10" cx="301.808" cy="173.024" r="89.157"/>
	<circle fill="none" stroke="#000000" stroke-miterlimit="10" cx="295.808" cy="179.024" r="89.157"/>
	<circle fill="none" stroke="#000000" stroke-miterlimit="10" cx="300.808" cy="186.024" r="89.157"/>
	<circle fill="none" stroke="#000000" stroke-miterlimit="10" cx="307.808" cy="193.024" r="89.157"/>
	<circle fill="none" stroke="#000000" stroke-miterlimit="10" cx="301.808" cy="199.024" r="89.157"/>
	<circle fill="none" stroke="#000000" stroke-miterlimit="10" cx="308.808" cy="205.024" r="89.157"/>
	<circle fill="none" stroke="#000000" stroke-miterlimit="10" cx="313.808" cy="212.024" r="89.157"/>
	<circle fill="none" stroke="#000000" stroke-miterlimit="10" cx="319.808" cy="221.024" r="89.157"/>
	<circle fill="none" stroke="#000000" stroke-miterlimit="10" cx="313.808" cy="228.024" r="89.157"/>
	<circle fill="none" stroke="#000000" stroke-miterlimit="10" cx="320.808" cy="234.024" r="89.157"/>
	<circle fill="none" stroke="#000000" stroke-miterlimit="10" cx="315.808" cy="240.024" r="89.157"/>
	<circle fill="none" stroke="#000000" stroke-miterlimit="10" cx="321.808" cy="247.024" r="89.157"/>
	<circle fill="none" stroke="#000000" stroke-miterlimit="10" cx="326.808" cy="253.024" r="89.157"/>
	<circle fill="none" stroke="#000000" stroke-miterlimit="10" cx="332.808" cy="260.024" r="89.157"/>
	<circle fill="none" stroke="#000000" stroke-miterlimit="10" cx="338.808" cy="267.024" r="89.157"/>
	<circle fill="none" stroke="#000000" stroke-miterlimit="10" cx="338.808" cy="268.024" r="89.157"/>
	<circle fill="none" stroke="#000000" stroke-miterlimit="10" cx="334.808" cy="274.024" r="89.157"/>
	<circle fill="none" stroke="#000000" stroke-miterlimit="10" cx="335.808" cy="276.024" r="89.157"/>
	<circle fill="none" stroke="#000000" stroke-miterlimit="10" cx="338.808" cy="280.024" r="89.157"/>
</g>
</svg>
