<?xml version="1.0" encoding="utf-8"?>
<!-- Generator: Adobe Illustrator 15.0.0, SVG Export Plug-In . SVG Version: 6.00 Build 0)  -->
<!DOCTYPE svg PUBLIC "-//W3C//DTD SVG 1.1//EN" "http://www.w3.org/Graphics/SVG/1.1/DTD/svg11.dtd">
<svg version="1.1" xmlns="http://www.w3.org/2000/svg" xmlns:xlink="http://www.w3.org/1999/xlink" x="0px" y="0px" width="720px"
	 height="720px" viewBox="0 0 720 720" enable-background="new 0 0 720 720" xml:space="preserve">
<g id="fg_black" display="none">
	<g display="inline">
		<g>
			<path fill-rule="evenodd" clip-rule="evenodd" d="M334.318,199.172c-0.092-0.427,0.196-0.473,0.502-0.501
				c18.759,7.748,36.11,18.71,34.108,46.649c-1.504,21.005-15.759,43.907-14.546,67.214c0.432,8.291,6.26,16.22,15.55,14.045
				c15.24-3.569,6.885-39.879,4.514-52.166c1.415-1.349,2.687,2.304,4.014,4.013c8.777,11.301,22.466,27.34,25.581,44.141
				c1.431,7.715,0.334,15.733-2.508,21.568c-10.438,21.432-37.531,31.927-56.681,45.145c-20.108-13.316-46.624-23.467-57.183-45.145
				c-2.247-4.613-3.802-10.822-3.01-18.559c1.866-18.218,15.522-34.141,26.585-48.154
				C327.092,257.35,356.256,229.893,334.318,199.172z"/>
			<path fill-rule="evenodd" clip-rule="evenodd" d="M329.303,395.297c-12.184,4.396-25.94,7.851-40.128,11.537
				c-4.447,1.155-10.11,3.791-13.543,3.511c-11.104-0.905-14.229-17.717-6.521-24.578c1.765-1.571,6.321-3.726,9.028-3.511
				C295.128,383.599,312.574,393.338,329.303,395.297z"/>
			<path fill-rule="evenodd" clip-rule="evenodd" d="M438.651,435.425c0,1.672,0,3.345,0,5.017
				c-2.052,7.025-6.2,12.827-13.042,14.044c-6.641,1.182-14.738-2.342-21.568-4.514c-19.194-6.105-41.896-12.811-59.188-18.56
				c-17.537,5.549-39.688,12.197-59.69,18.56c-6.835,2.174-14.933,5.694-21.568,4.514c-6.851-1.218-10.979-7.006-13.042-14.044
				c0-1.84,0-3.679,0-5.518c2.826-12.389,14.7-14.042,27.588-17.557c37.368-10.188,77.207-20.859,113.863-30.598
				c6.756-1.795,15.512-4.972,20.063-4.514c7.516,0.756,12.665,7.748,12.54,14.546c-0.229,12.516-13.299,13.312-24.578,18.058
				C414.678,419.94,435.528,418.818,438.651,435.425z"/>
		</g>
	</g>
	
		<circle display="inline" fill-rule="evenodd" clip-rule="evenodd" fill="none" stroke="#000000" stroke-width="6" cx="344.559" cy="342.44" r="209.24"/>
</g>
<g id="fg_black_copy">
	<g>
		<g>
			<path fill-rule="evenodd" clip-rule="evenodd" fill="#FFFFFF" d="M334.318,199.172c-0.092-0.427,0.196-0.473,0.502-0.501
				c18.759,7.748,36.11,18.71,34.108,46.649c-1.504,21.005-15.759,43.907-14.546,67.214c0.432,8.291,6.26,16.22,15.55,14.045
				c15.24-3.569,6.885-39.879,4.514-52.166c1.415-1.349,2.687,2.304,4.014,4.013c8.777,11.301,22.466,27.34,25.581,44.141
				c1.431,7.715,0.334,15.733-2.508,21.568c-10.438,21.432-37.531,31.927-56.681,45.145c-20.108-13.316-46.624-23.467-57.183-45.145
				c-2.247-4.613-3.802-10.822-3.01-18.559c1.866-18.218,15.522-34.141,26.585-48.154
				C327.092,257.35,356.256,229.893,334.318,199.172z"/>
			<path fill-rule="evenodd" clip-rule="evenodd" fill="#FFFFFF" d="M329.303,395.297c-12.184,4.396-25.94,7.851-40.128,11.537
				c-4.447,1.155-10.11,3.791-13.543,3.511c-11.104-0.905-14.229-17.717-6.521-24.578c1.765-1.571,6.321-3.726,9.028-3.511
				C295.128,383.599,312.574,393.338,329.303,395.297z"/>
			<path fill-rule="evenodd" clip-rule="evenodd" fill="#FFFFFF" d="M438.651,435.425c0,1.672,0,3.345,0,5.017
				c-2.052,7.025-6.2,12.827-13.042,14.044c-6.641,1.182-14.738-2.342-21.568-4.514c-19.194-6.105-41.896-12.811-59.188-18.56
				c-17.537,5.549-39.688,12.197-59.69,18.56c-6.835,2.174-14.933,5.694-21.568,4.514c-6.851-1.218-10.979-7.006-13.042-14.044
				c0-1.84,0-3.679,0-5.518c2.826-12.389,14.7-14.042,27.588-17.557c37.368-10.188,77.207-20.859,113.863-30.598
				c6.756-1.795,15.512-4.972,20.063-4.514c7.516,0.756,12.665,7.748,12.54,14.546c-0.229,12.516-13.299,13.312-24.578,18.058
				C414.678,419.94,435.528,418.818,438.651,435.425z"/>
		</g>
	</g>
	
		<circle fill-rule="evenodd" clip-rule="evenodd" fill="none" stroke="#FFFFFF" stroke-width="6" cx="344.559" cy="342.44" r="209.24"/>
</g>
</svg>
